<svg width="470" height="654" viewBox="0 0 470 654" fill="none" xmlns="http://www.w3.org/2000/svg">
<g id="FinalDiamond">
<path id="Polygon 1" d="M146 0V151H0L146 0Z" fill="white"/>
<path id="Polygon 4" d="M308 167V319H162L308 167Z" fill="white"/>
<path id="Polygon 2" d="M162 -4.58956e-06H308V151L162 -4.58956e-06Z" fill="white"/>
<path id="Polygon 5" d="M0 167H146L146 319L0 167Z" fill="white"/>
</g>
<g id="CSI">
<path id="S" fill-rule="evenodd" clip-rule="evenodd" d="M308 335H162V486H308V335ZM251.125 431.688C251.708 433.104 252 434.625 252 436.25C252 437.875 251.667 439.375 251 440.75C250.333 442.083 249.375 443.229 248.125 444.188C246.875 445.146 245.333 445.896 243.5 446.438C241.708 446.979 239.646 447.25 237.312 447.25C234.688 447.25 232.271 446.958 230.062 446.375C227.896 445.792 226.042 444.875 224.5 443.625C222.917 442.375 221.688 440.771 220.812 438.812C219.938 436.854 219.458 434.5 219.375 431.75H202.125C202.125 436.458 203.021 440.562 204.812 444.062C206.646 447.562 209.125 450.604 212.25 453.188C215.542 455.812 219.396 457.812 223.812 459.188C228.271 460.521 232.771 461.188 237.312 461.188C241.938 461.188 246.208 460.646 250.125 459.562C254.042 458.438 257.417 456.792 260.25 454.625C263.083 452.5 265.292 449.896 266.875 446.812C268.5 443.688 269.312 440.125 269.312 436.125C269.312 431.5 268.25 427.417 266.125 423.875C264 420.333 261.146 417.229 257.562 414.562C255.188 412.938 252.583 411.5 249.75 410.25C246.917 409 243.938 407.938 240.812 407.062C237.896 406.271 235.271 405.417 232.938 404.5C230.646 403.583 228.688 402.562 227.062 401.438C225.438 400.354 224.188 399.125 223.312 397.75C222.479 396.375 222.062 394.833 222.062 393.125C222.062 391.5 222.375 390 223 388.625C223.667 387.208 224.625 385.979 225.875 384.938C227.125 383.938 228.646 383.167 230.438 382.625C232.271 382.042 234.354 381.75 236.688 381.75C239.229 381.75 241.438 382.104 243.312 382.812C245.229 383.479 246.833 384.417 248.125 385.625C249.375 386.875 250.312 388.354 250.938 390.062C251.604 391.771 251.979 393.646 252.062 395.688H269.188C269.188 391.604 268.396 387.854 266.812 384.438C265.229 381.021 263.021 378.062 260.188 375.562C257.354 373.104 253.958 371.188 250 369.812C246.083 368.438 241.75 367.75 237 367.75C232.417 367.75 228.167 368.354 224.25 369.562C220.333 370.729 216.938 372.417 214.062 374.625C211.188 376.833 208.938 379.5 207.312 382.625C205.688 385.75 204.875 389.229 204.875 393.062C204.875 396.396 205.479 399.479 206.688 402.312C207.938 405.146 209.771 407.729 212.188 410.062C214.604 412.396 217.708 414.542 221.5 416.5C225.333 418.458 229.771 420.125 234.812 421.5C238.062 422.375 240.771 423.333 242.938 424.375C245.146 425.375 246.938 426.479 248.312 427.688C249.646 428.938 250.583 430.271 251.125 431.688Z" fill="white"/>
<path id="C" fill-rule="evenodd" clip-rule="evenodd" d="M146 335H0V486H146V335ZM102.938 443.875C104.646 440.208 105.646 436.083 105.938 431.5H88.375C88.2083 434.25 87.75 436.604 87 438.562C86.25 440.521 85.2292 442.125 83.9375 443.375C82.6458 444.625 81.0833 445.542 79.25 446.125C77.4167 446.708 75.3542 447 73.0625 447C71.3542 447 69.7917 446.812 68.375 446.438C67 446.021 65.75 445.396 64.625 444.562C63.5833 443.812 62.6458 442.875 61.8125 441.75C61.0208 440.625 60.3333 439.333 59.75 437.875C58.9167 435.75 58.2917 433.271 57.875 430.438C57.5 427.562 57.3125 424.312 57.3125 420.688V408.312C57.3125 405.646 57.4375 403.167 57.6875 400.875C57.9375 398.542 58.3333 396.417 58.875 394.5C59.5833 392.042 60.5208 389.896 61.6875 388.062C62.8958 386.188 64.3542 384.75 66.0625 383.75C67.0625 383.167 68.1458 382.729 69.3125 382.438C70.5208 382.146 71.8125 382 73.1875 382C75.7708 382 77.9792 382.354 79.8125 383.062C81.6875 383.729 83.25 384.729 84.5 386.062C85.7083 387.438 86.625 389.146 87.25 391.188C87.9167 393.229 88.3333 395.604 88.5 398.312H106C105.583 393.562 104.583 389.292 103 385.5C101.417 381.708 99.25 378.5 96.5 375.875C93.75 373.25 90.4167 371.229 86.5 369.812C82.625 368.396 78.1875 367.688 73.1875 367.688C69.8125 367.688 66.6458 368.125 63.6875 369C60.7708 369.833 58.0833 371.042 55.625 372.625C52.875 374.5 50.4167 376.792 48.25 379.5C46.0833 382.208 44.3333 385.292 43 388.75C41.8333 391.583 40.9583 394.667 40.375 398C39.7917 401.292 39.5 404.771 39.5 408.438V420.688C39.5 424.604 39.8125 428.312 40.4375 431.812C41.1042 435.312 42.0417 438.521 43.25 441.438C44.5 444.354 46.0208 447.021 47.8125 449.438C49.6458 451.854 51.7292 453.917 54.0625 455.625C56.6042 457.458 59.4583 458.875 62.625 459.875C65.8333 460.833 69.3125 461.312 73.0625 461.312C77.8125 461.312 82.1458 460.625 86.0625 459.25C89.9792 457.833 93.3542 455.833 96.1875 453.25C99.0208 450.667 101.271 447.542 102.938 443.875Z" fill="white"/>
</g>
<g id="SPIT">
<path id="T" fill-rule="evenodd" clip-rule="evenodd" d="M470 502H324V653H470V502ZM405.562 549.312H433.625V535H360.25V549.312H387.938V626H405.562V549.312Z" fill="white"/>
<path id="I" fill-rule="evenodd" clip-rule="evenodd" d="M470 335H324V486H470V335ZM423.25 368H370.625V382.188H387.938V444.875H370.625V459H423.25V444.875H405.5V382.188H423.25V368Z" fill="white"/>
<path id="P" fill-rule="evenodd" clip-rule="evenodd" d="M470 167H324V319H470V167ZM385.438 292V258.625H399C403.958 258.625 408.438 257.917 412.438 256.5C416.438 255.083 419.854 253.104 422.688 250.562C425.479 248.062 427.625 245.083 429.125 241.625C430.667 238.167 431.438 234.396 431.438 230.312C431.438 225.938 430.667 221.958 429.125 218.375C427.625 214.792 425.479 211.708 422.688 209.125C419.854 206.583 416.438 204.604 412.438 203.188C408.438 201.729 403.958 201 399 201H367.875V292H385.438ZM399 244.375H385.438V215.25H399C401.5 215.25 403.667 215.646 405.5 216.438C407.333 217.229 408.875 218.312 410.125 219.688C411.333 221.062 412.229 222.667 412.812 224.5C413.438 226.333 413.75 228.312 413.75 230.438C413.75 232.271 413.438 234.042 412.812 235.75C412.229 237.417 411.333 238.896 410.125 240.188C408.875 241.479 407.333 242.5 405.5 243.25C403.667 244 401.5 244.375 399 244.375Z" fill="white"/>
<path id="S_2" fill-rule="evenodd" clip-rule="evenodd" d="M470 0H324V151H470V0ZM413.125 96.6875C413.708 98.1042 414 99.625 414 101.25C414 102.875 413.667 104.375 413 105.75C412.333 107.083 411.375 108.229 410.125 109.188C408.875 110.146 407.333 110.896 405.5 111.438C403.708 111.979 401.646 112.25 399.312 112.25C396.688 112.25 394.271 111.958 392.062 111.375C389.896 110.792 388.042 109.875 386.5 108.625C384.917 107.375 383.688 105.771 382.812 103.812C381.938 101.854 381.458 99.5 381.375 96.75H364.125C364.125 101.458 365.021 105.562 366.812 109.062C368.646 112.562 371.125 115.604 374.25 118.188C377.542 120.812 381.396 122.812 385.812 124.188C390.271 125.521 394.771 126.188 399.312 126.188C403.938 126.188 408.208 125.646 412.125 124.562C416.042 123.438 419.417 121.792 422.25 119.625C425.083 117.5 427.292 114.896 428.875 111.812C430.5 108.688 431.312 105.125 431.312 101.125C431.312 96.5 430.25 92.4167 428.125 88.875C426 85.3333 423.146 82.2292 419.562 79.5625C417.188 77.9375 414.583 76.5 411.75 75.25C408.917 74 405.938 72.9375 402.812 72.0625C399.896 71.2708 397.271 70.4167 394.938 69.5C392.646 68.5833 390.688 67.5625 389.062 66.4375C387.438 65.3542 386.188 64.125 385.312 62.75C384.479 61.375 384.062 59.8333 384.062 58.125C384.062 56.5 384.375 55 385 53.625C385.667 52.2083 386.625 50.9792 387.875 49.9375C389.125 48.9375 390.646 48.1667 392.438 47.625C394.271 47.0417 396.354 46.75 398.688 46.75C401.229 46.75 403.438 47.1042 405.312 47.8125C407.229 48.4792 408.833 49.4167 410.125 50.625C411.375 51.875 412.312 53.3542 412.938 55.0625C413.604 56.7708 413.979 58.6458 414.062 60.6875H431.188C431.188 56.6042 430.396 52.8542 428.812 49.4375C427.229 46.0208 425.021 43.0625 422.188 40.5625C419.354 38.1042 415.958 36.1875 412 34.8125C408.083 33.4375 403.75 32.75 399 32.75C394.417 32.75 390.167 33.3542 386.25 34.5625C382.333 35.7292 378.938 37.4167 376.062 39.625C373.188 41.8333 370.938 44.5 369.312 47.625C367.688 50.75 366.875 54.2292 366.875 58.0625C366.875 61.3958 367.479 64.4792 368.688 67.3125C369.938 70.1458 371.771 72.7292 374.188 75.0625C376.604 77.3958 379.708 79.5417 383.5 81.5C387.333 83.4583 391.771 85.125 396.812 86.5C400.062 87.375 402.771 88.3333 404.938 89.375C407.146 90.375 408.938 91.4792 410.312 92.6875C411.646 93.9375 412.583 95.2708 413.125 96.6875Z" fill="white"/>
</g>
<defs>
<clipPath id="clip0_1_2">
<rect width="470" height="653.018" fill="white"/>
</clipPath>
</defs>
</svg>
